<svg xmlns="http://www.w3.org/2000/svg" viewBox="0 0 24 16">
  <rect width="24" height="16" fill="#012169"/>
  <polygon points="0,0 2.5,0 24,13.5 24,16 21.5,16 0,2.5" fill="#ffffff"/>
  <polygon points="24,0 21.5,0 0,13.5 0,16 2.5,16 24,2.5" fill="#ffffff"/>
  <polygon points="0,0 1.2,0 24,14.8 24,16 22.8,16 0,1.2" fill="#c8102e"/>
  <polygon points="24,0 22.8,0 0,14.8 0,16 1.2,16 24,1.2" fill="#c8102e"/>
  <rect x="9" width="6" height="16" fill="#ffffff"/>
  <rect y="5" width="24" height="6" fill="#ffffff"/>
  <rect x="10.2" width="3.6" height="16" fill="#c8102e"/>
  <rect y="6.2" width="24" height="3.6" fill="#c8102e"/>
</svg>
